<svg width="344" height="344" viewBox="0 0 344 344" fill="none" xmlns="http://www.w3.org/2000/svg">
<path d="M35 319.9C35 319.9 127.59 171.15 164.51 154.8L220.42 177.48C220.42 177.48 107.54 305.13 92.24 339.41L35 319.9Z" fill="#E400CD"/>
<path d="M111.77 5C111.77 5 37.92 175.9 35 319.9L92.25 339.42C92.25 339.42 121.26 97.84 170.73 27.68L111.77 5Z" fill="#FF8BEF"/>
<path d="M142.9 295.32C142.9 295.32 214.1 298.27 256.3 189.61L315.9 209.65C315.9 209.65 280.03 335.5 187.18 334.24L142.9 295.31V295.32Z" fill="#E400CD"/>
<path d="M164.51 154.8C164.51 154.8 117.56 261.88 148.16 305.13C178.76 348.38 216.73 342.84 256.29 307.77C256.29 307.77 161.34 314.1 220.42 177.48L164.51 154.8Z" fill="#FF8BEF"/>
</svg>
