<svg width="20" height="20" viewBox="0 0 20 20" fill="none" xmlns="http://www.w3.org/2000/svg">
<path d="M15.2946 3.56641C14.6489 3.56641 14.1211 4.0942 14.1211 4.7399C14.1211 5.38561 14.6489 5.9134 15.2946 5.9134C15.9403 5.9134 16.4681 5.38561 16.4681 4.7399C16.4681 4.0942 15.9403 3.56641 15.2946 3.56641Z" fill="white" fill-opacity="0.6"/>
<path d="M10.0843 5.07031C7.36676 5.07031 5.16016 7.28256 5.16016 9.99452C5.16016 12.7065 7.37237 14.9187 10.0843 14.9187C12.7963 14.9187 15.0085 12.7065 15.0085 9.99452C15.0085 7.28256 12.7963 5.07031 10.0843 5.07031ZM10.0843 13.1557C8.34374 13.1557 6.92881 11.7407 6.92881 10.0001C6.92881 8.25953 8.34374 6.8446 10.0843 6.8446C11.8249 6.8446 13.2399 8.25953 13.2399 10.0001C13.2399 11.7407 11.8249 13.1557 10.0843 13.1557Z" fill="white" fill-opacity="0.6"/>
<path d="M13.9921 20H6.00783C2.69509 20 0 17.3049 0 13.9921V6.00786C0 2.69511 2.69509 0 6.00783 0H13.9921C17.3049 0 20 2.69511 20 6.00786V13.9921C20 17.3049 17.3049 20 13.9921 20ZM6.00783 1.87535C3.73383 1.87535 1.88095 3.72824 1.88095 6.00225V13.9865C1.88095 16.2605 3.73383 18.1134 6.00783 18.1134H13.9921C16.2661 18.1134 18.119 16.2605 18.119 13.9865V6.00225C18.119 3.72824 16.2661 1.87535 13.9921 1.87535H6.00783Z" fill="white" fill-opacity="0.6"/>
</svg>
