<svg width="83" height="83" viewBox="0 0 83 83" fill="none" xmlns="http://www.w3.org/2000/svg">
<path d="M68.6784 12.68C68.6784 16.37 65.6884 19.36 61.9984 19.36C58.3084 19.36 55.3184 16.37 55.3184 12.68C55.3184 8.99 58.3084 6 61.9984 6C65.6884 6 68.6784 8.99 68.6784 12.68Z" fill="#E55927"/>
<path d="M78.2883 34.47C76.5283 27.44 70.0783 22.27 62.8583 21.73C55.9683 21.22 51.0683 23.4499 47.6883 27.17C42.4883 32.88 40.9383 43.36 36.2383 49.33C38.0083 54.05 40.9383 58.8499 41.4983 59.6699C46.4983 55.3399 49.6883 49.23 52.4483 41.46C53.6883 37.97 55.7883 33.4399 60.3283 33.9299C63.8383 34.3099 67.3683 37.62 65.9683 46.44C64.3083 56.85 57.6883 65.25 51.9783 65.66C47.7683 65.96 44.6283 63.7699 42.4483 60.8299C44.4283 63.5099 47.4383 68.0299 53.7883 70.2599C60.4283 72.5899 65.9783 71.4099 69.3683 68.5299C71.0883 66.6699 72.6583 64.4599 74.0083 61.8999C79.2583 51.9399 80.0783 41.65 78.2883 34.49" fill="#E55927"/>
<path d="M53.7883 70.2102C46.4783 67.9802 41.2083 59.9602 37.6883 52.4002C34.9983 46.6202 33.3683 41.2102 32.0183 37.4402C29.7783 31.1902 24.9083 26.6702 17.5683 27.0402C7.84832 27.5302 3.60832 35.3202 4.02832 43.6202C4.46832 52.3802 10.2283 63.2402 21.1783 64.9302C24.8683 65.5002 28.5383 65.4902 32.2183 64.5302C37.9283 73.0902 44.2883 76.2402 51.5883 76.4602C57.6883 76.6402 64.1983 74.1202 69.3583 68.5302C65.9683 71.4202 60.5183 72.2802 53.7883 70.2202M25.7183 55.6802C19.5183 55.7602 15.6883 52.2702 13.9683 46.3502C12.5883 41.6102 13.7983 38.3602 16.5583 37.7402C18.8783 37.2202 20.8983 38.1402 22.6883 43.4002C23.8083 46.7002 24.6483 50.3302 27.1583 55.5602C26.6883 55.6402 26.2083 55.6802 25.7183 55.6802Z" fill="#F0A227"/>
<path d="M23.9983 19.3702C23.9983 22.6202 21.3683 25.2502 18.1183 25.2502C14.8683 25.2502 12.2383 22.6202 12.2383 19.3702C12.2383 16.1202 14.8683 13.4902 18.1183 13.4902C21.3683 13.4902 23.9983 16.1202 23.9983 19.3702Z" fill="#F0A227"/>
<mask id="mask0_245_615" style="mask-type:luminance" maskUnits="userSpaceOnUse" x="4" y="27" width="29" height="39">
<path d="M13.9683 46.35C12.5883 41.61 13.7983 38.36 16.5583 37.74C16.9983 37.64 17.4383 37.6 17.8683 37.62V27.02C17.7683 27.02 17.6783 27.02 17.5783 27.02C7.85833 27.51 3.61833 35.3 4.03833 43.6C4.47833 52.36 10.2383 63.22 21.1883 64.91C24.8783 65.48 28.5483 65.47 32.2283 64.51C31.7383 63.78 31.2583 63.01 30.7783 62.2C29.2783 59.65 28.1083 57.46 27.1683 55.55C26.6983 55.63 26.2183 55.67 25.7283 55.67C19.5283 55.75 15.6983 52.26 13.9783 46.34" fill="white"/>
</mask>
<g mask="url(#mask0_245_615)">
<path d="M8.72018 16.0643L-11.126 58.6245L27.1111 76.4548L46.9573 33.8946L8.72018 16.0643Z" fill="url(#paint0_linear_245_615)"/>
</g>
<mask id="mask1_245_615" style="mask-type:luminance" maskUnits="userSpaceOnUse" x="42" y="21" width="38" height="51">
<path d="M78.2885 34.4699C76.5285 27.4399 70.0785 22.2699 62.8585 21.7299C62.3085 21.6899 61.7785 21.6699 61.2485 21.6699V34.0999C64.4185 34.9399 67.2385 38.3999 65.9585 46.4399C64.2985 56.8499 57.6785 65.2499 51.9685 65.6599C47.7585 65.9599 44.6185 63.7699 42.4385 60.8299C44.4185 63.5099 47.4285 68.0299 53.7785 70.2599C60.4185 72.5899 65.9685 71.4099 69.3585 68.5299C71.0785 66.6699 72.6485 64.4599 73.9985 61.8999C79.2485 51.9399 80.0685 41.6499 78.2785 34.4899" fill="white"/>
</mask>
<g mask="url(#mask1_245_615)">
<path d="M51.858 5.37515L20.408 59.8481L70.6807 88.8731L102.131 34.4001L51.858 5.37515Z" fill="url(#paint1_linear_245_615)"/>
</g>
<defs>
<linearGradient id="paint0_linear_245_615" x1="3.35524" y1="40.169" x2="36.5914" y2="55.6673" gradientUnits="userSpaceOnUse">
<stop stop-color="#F0A227"/>
<stop offset="0.4" stop-color="#F0A227"/>
<stop offset="1" stop-color="#C2631D"/>
</linearGradient>
<linearGradient id="paint1_linear_245_615" x1="74.0361" y1="25.7504" x2="49.7481" y2="67.8184" gradientUnits="userSpaceOnUse">
<stop stop-color="#E55927"/>
<stop offset="0.65" stop-color="#E55927"/>
<stop offset="1" stop-color="#BB3921"/>
</linearGradient>
</defs>
</svg>
